<mxfile host="Electron" agent="Mozilla/5.0 (Windows NT 10.0; Win64; x64) AppleWebKit/537.36 (KHTML, like Gecko) draw.io/26.2.2 Chrome/134.0.6998.178 Electron/35.1.2 Safari/537.36" version="26.2.2">
  <diagram name="Страница — 1" id="ZuPGvZtwAR4wR8xBhLt8">
    <mxGraphModel dx="1130" dy="1294" grid="1" gridSize="10" guides="1" tooltips="1" connect="1" arrows="1" fold="1" page="1" pageScale="1" pageWidth="1654" pageHeight="1169" math="0" shadow="0">
      <root>
        <mxCell id="0" />
        <mxCell id="1" parent="0" />
        <mxCell id="Z9E9un8W0VENHPNpgVUF-19" value="Управление обслуживанием в сети отделений" style="rounded=1;whiteSpace=wrap;html=1;fillColor=#eeeeee;strokeColor=#36393d;" vertex="1" parent="1">
          <mxGeometry x="280" y="320" width="120" height="60" as="geometry" />
        </mxCell>
        <mxCell id="Z9E9un8W0VENHPNpgVUF-20" value="Кол-центр" style="rounded=1;whiteSpace=wrap;html=1;fillColor=#eeeeee;strokeColor=#36393d;" vertex="1" parent="1">
          <mxGeometry x="280" y="600" width="120" height="60" as="geometry" />
        </mxCell>
        <mxCell id="Z9E9un8W0VENHPNpgVUF-21" value="IT-отдел" style="rounded=1;whiteSpace=wrap;html=1;fillColor=#eeeeee;strokeColor=#36393d;" vertex="1" parent="1">
          <mxGeometry x="280" y="530" width="120" height="60" as="geometry" />
        </mxCell>
        <mxCell id="Z9E9un8W0VENHPNpgVUF-22" value="Управление обслуживанием депозитных продуктов" style="rounded=1;whiteSpace=wrap;html=1;fillColor=#eeeeee;strokeColor=#36393d;" vertex="1" parent="1">
          <mxGeometry x="280" y="390" width="120" height="60" as="geometry" />
        </mxCell>
        <mxCell id="Z9E9un8W0VENHPNpgVUF-23" value="Управление обслуживанием кредитных продуктов" style="rounded=1;whiteSpace=wrap;html=1;fillColor=#eeeeee;strokeColor=#36393d;" vertex="1" parent="1">
          <mxGeometry x="280" y="460" width="120" height="60" as="geometry" />
        </mxCell>
        <mxCell id="Z9E9un8W0VENHPNpgVUF-25" value="Продажи в сети отделений" style="rounded=1;whiteSpace=wrap;html=1;fillColor=#eeeeee;strokeColor=#36393d;" vertex="1" parent="1">
          <mxGeometry x="730" y="250" width="120" height="60" as="geometry" />
        </mxCell>
        <mxCell id="Z9E9un8W0VENHPNpgVUF-26" value="Продажи через кол-центр" style="rounded=1;whiteSpace=wrap;html=1;fillColor=#eeeeee;strokeColor=#36393d;" vertex="1" parent="1">
          <mxGeometry x="420" y="250" width="120" height="60" as="geometry" />
        </mxCell>
        <mxCell id="Z9E9un8W0VENHPNpgVUF-27" value="Digital-оповещения клиентов" style="rounded=1;whiteSpace=wrap;html=1;fillColor=#eeeeee;strokeColor=#36393d;" vertex="1" parent="1">
          <mxGeometry x="574" y="250" width="120" height="60" as="geometry" />
        </mxCell>
        <mxCell id="Z9E9un8W0VENHPNpgVUF-28" value="Обслуживание депозитных процессов" style="rounded=1;whiteSpace=wrap;html=1;fillColor=#eeeeee;strokeColor=#36393d;" vertex="1" parent="1">
          <mxGeometry x="1190" y="250" width="120" height="60" as="geometry" />
        </mxCell>
        <mxCell id="Z9E9un8W0VENHPNpgVUF-29" value="Обслуживание кредитных процессов" style="rounded=1;whiteSpace=wrap;html=1;fillColor=#eeeeee;strokeColor=#36393d;" vertex="1" parent="1">
          <mxGeometry x="880" y="250" width="120" height="60" as="geometry" />
        </mxCell>
        <mxCell id="Z9E9un8W0VENHPNpgVUF-30" value="Управление договорами" style="rounded=1;whiteSpace=wrap;html=1;fillColor=#eeeeee;strokeColor=#36393d;" vertex="1" parent="1">
          <mxGeometry x="1030" y="250" width="120" height="60" as="geometry" />
        </mxCell>
        <mxCell id="Z9E9un8W0VENHPNpgVUF-32" value="" style="endArrow=none;html=1;rounded=0;strokeColor=#000000;strokeWidth=1;dashed=1;dashPattern=8 8;" edge="1" parent="1">
          <mxGeometry width="50" height="50" relative="1" as="geometry">
            <mxPoint x="400" y="380" as="sourcePoint" />
            <mxPoint x="1340" y="380" as="targetPoint" />
          </mxGeometry>
        </mxCell>
        <mxCell id="Z9E9un8W0VENHPNpgVUF-33" value="" style="endArrow=none;html=1;rounded=0;strokeColor=#000000;strokeWidth=1;dashed=1;dashPattern=8 8;" edge="1" parent="1">
          <mxGeometry width="50" height="50" relative="1" as="geometry">
            <mxPoint x="400" y="450" as="sourcePoint" />
            <mxPoint x="1330" y="450" as="targetPoint" />
          </mxGeometry>
        </mxCell>
        <mxCell id="Z9E9un8W0VENHPNpgVUF-34" value="" style="endArrow=none;html=1;rounded=0;strokeColor=#000000;strokeWidth=1;dashed=1;dashPattern=8 8;" edge="1" parent="1">
          <mxGeometry width="50" height="50" relative="1" as="geometry">
            <mxPoint x="400" y="520" as="sourcePoint" />
            <mxPoint x="1330" y="520" as="targetPoint" />
          </mxGeometry>
        </mxCell>
        <mxCell id="Z9E9un8W0VENHPNpgVUF-35" value="" style="endArrow=none;html=1;rounded=0;strokeColor=#000000;strokeWidth=1;dashed=1;dashPattern=8 8;" edge="1" parent="1">
          <mxGeometry width="50" height="50" relative="1" as="geometry">
            <mxPoint x="403" y="590" as="sourcePoint" />
            <mxPoint x="1330" y="590" as="targetPoint" />
          </mxGeometry>
        </mxCell>
        <mxCell id="Z9E9un8W0VENHPNpgVUF-36" value="" style="endArrow=none;html=1;rounded=0;strokeColor=#000000;strokeWidth=1;dashed=1;dashPattern=8 8;" edge="1" parent="1">
          <mxGeometry width="50" height="50" relative="1" as="geometry">
            <mxPoint x="400" y="668.01" as="sourcePoint" />
            <mxPoint x="1330" y="668" as="targetPoint" />
          </mxGeometry>
        </mxCell>
        <mxCell id="Z9E9un8W0VENHPNpgVUF-38" value="" style="endArrow=none;html=1;rounded=0;strokeColor=#000000;exitX=1;exitY=0;exitDx=0;exitDy=0;strokeWidth=1;dashed=1;dashPattern=8 8;" edge="1" parent="1">
          <mxGeometry width="50" height="50" relative="1" as="geometry">
            <mxPoint x="560" y="250" as="sourcePoint" />
            <mxPoint x="560" y="730" as="targetPoint" />
          </mxGeometry>
        </mxCell>
        <mxCell id="Z9E9un8W0VENHPNpgVUF-39" value="" style="endArrow=none;html=1;rounded=0;strokeColor=#000000;exitX=1;exitY=0;exitDx=0;exitDy=0;strokeWidth=1;dashed=1;dashPattern=8 8;" edge="1" parent="1">
          <mxGeometry width="50" height="50" relative="1" as="geometry">
            <mxPoint x="708.82" y="250" as="sourcePoint" />
            <mxPoint x="708.82" y="740" as="targetPoint" />
          </mxGeometry>
        </mxCell>
        <mxCell id="Z9E9un8W0VENHPNpgVUF-40" value="" style="endArrow=none;html=1;rounded=0;strokeColor=#000000;exitX=1;exitY=0;exitDx=0;exitDy=0;strokeWidth=1;dashed=1;dashPattern=8 8;" edge="1" parent="1">
          <mxGeometry width="50" height="50" relative="1" as="geometry">
            <mxPoint x="870" y="250" as="sourcePoint" />
            <mxPoint x="870" y="740" as="targetPoint" />
          </mxGeometry>
        </mxCell>
        <mxCell id="Z9E9un8W0VENHPNpgVUF-41" value="" style="endArrow=none;html=1;rounded=0;strokeColor=#000000;exitX=1;exitY=0;exitDx=0;exitDy=0;strokeWidth=1;dashed=1;dashPattern=8 8;" edge="1" parent="1">
          <mxGeometry width="50" height="50" relative="1" as="geometry">
            <mxPoint x="1010" y="245" as="sourcePoint" />
            <mxPoint x="1010" y="735" as="targetPoint" />
          </mxGeometry>
        </mxCell>
        <mxCell id="Z9E9un8W0VENHPNpgVUF-42" value="" style="endArrow=none;html=1;rounded=0;strokeColor=#000000;exitX=1;exitY=0;exitDx=0;exitDy=0;strokeWidth=1;dashed=1;dashPattern=8 8;" edge="1" parent="1">
          <mxGeometry width="50" height="50" relative="1" as="geometry">
            <mxPoint x="1170" y="250" as="sourcePoint" />
            <mxPoint x="1170" y="740" as="targetPoint" />
          </mxGeometry>
        </mxCell>
        <mxCell id="Z9E9un8W0VENHPNpgVUF-43" value="" style="endArrow=none;html=1;rounded=0;strokeColor=#000000;exitX=1;exitY=0;exitDx=0;exitDy=0;strokeWidth=1;dashed=1;dashPattern=8 8;" edge="1" parent="1">
          <mxGeometry width="50" height="50" relative="1" as="geometry">
            <mxPoint x="1330" y="250" as="sourcePoint" />
            <mxPoint x="1330" y="740" as="targetPoint" />
          </mxGeometry>
        </mxCell>
        <mxCell id="Z9E9un8W0VENHPNpgVUF-47" value="&lt;b&gt;&amp;nbsp;Сайт&lt;/b&gt;" style="rounded=1;whiteSpace=wrap;html=1;fillColor=#cce5ff;strokeColor=#36393d;" vertex="1" parent="1">
          <mxGeometry x="570" y="525" width="130" height="20" as="geometry" />
        </mxCell>
        <mxCell id="Z9E9un8W0VENHPNpgVUF-48" value="&lt;b&gt;СМС-шлюз телеком оператора&lt;/b&gt;" style="rounded=1;whiteSpace=wrap;html=1;fillColor=#cce5ff;strokeColor=#36393d;" vertex="1" parent="1">
          <mxGeometry x="570" y="552" width="130" height="30" as="geometry" />
        </mxCell>
        <mxCell id="Z9E9un8W0VENHPNpgVUF-50" value="&lt;b&gt;Система кол-центра&lt;/b&gt;" style="rounded=1;whiteSpace=wrap;html=1;fillColor=#cce5ff;strokeColor=#36393d;" vertex="1" parent="1">
          <mxGeometry x="410" y="595" width="140" height="30" as="geometry" />
        </mxCell>
        <mxCell id="Z9E9un8W0VENHPNpgVUF-51" value="&lt;b&gt;Система партнерского кол-центра&lt;/b&gt;" style="rounded=1;whiteSpace=wrap;html=1;fillColor=#cce5ff;strokeColor=#36393d;" vertex="1" parent="1">
          <mxGeometry x="410" y="635" width="140" height="30" as="geometry" />
        </mxCell>
        <mxCell id="Z9E9un8W0VENHPNpgVUF-54" value="&lt;b&gt;Интернет-банк&lt;/b&gt;" style="rounded=1;whiteSpace=wrap;html=1;fillColor=#cce5ff;strokeColor=#36393d;" vertex="1" parent="1">
          <mxGeometry x="1020" y="540" width="140" height="30" as="geometry" />
        </mxCell>
        <mxCell id="Z9E9un8W0VENHPNpgVUF-55" value="&lt;b&gt;АБС&lt;/b&gt;" style="rounded=1;whiteSpace=wrap;html=1;fillColor=#cce5ff;strokeColor=#36393d;" vertex="1" parent="1">
          <mxGeometry x="740" y="320" width="550" height="190" as="geometry" />
        </mxCell>
      </root>
    </mxGraphModel>
  </diagram>
</mxfile>
